<svg id="ba0c8750-cbb8-4d85-b667-7c3f3ba3bd1b" data-name="a950f0c6-02e8-409e-bd43-83c262a60017" xmlns="http://www.w3.org/2000/svg" width="11.24in" height="4.91in" viewBox="0 0 809.33 353.39"><title>07395-003</title><path d="M775.48,41.84v-8.6h3.65a6.44,6.44,0,0,1,2,.23,2,2,0,0,1,1,.83,2.45,2.45,0,0,1,.37,1.35,2.36,2.36,0,0,1-.56,1.6,2.81,2.81,0,0,1-1.7.79,4.29,4.29,0,0,1,.93.72,10.76,10.76,0,0,1,1,1.4l1.05,1.68h-2.07L779.89,40A12.74,12.74,0,0,0,779,38.7a1.23,1.23,0,0,0-.52-.35,2.59,2.59,0,0,0-.87-.1h-.36v3.59Zm1.73-5h1.29a7.45,7.45,0,0,0,1.56-.11,1.07,1.07,0,0,0,.48-.36,1.16,1.16,0,0,0,.18-.65,1,1,0,0,0-.89-1h-2.62Z" transform="translate(0 -0.07)" fill="#231f20"/><path d="M783.79,37.59a5.47,5.47,0,0,1,.39-2.2,4.17,4.17,0,0,1,.8-1.18,3.33,3.33,0,0,1,1.11-.78,4.89,4.89,0,0,1,1.85-.34,4,4,0,0,1,3,1.19,4.46,4.46,0,0,1,1.14,3.27,4.18,4.18,0,0,1-7.2,3.26A4.43,4.43,0,0,1,783.79,37.59Zm1.78-.06a3.23,3.23,0,0,0,.68,2.22,2.23,2.23,0,0,0,1.71.75,2.16,2.16,0,0,0,1.7-.75,3.19,3.19,0,0,0,.67-2.24,3.21,3.21,0,0,0-.65-2.2,2.39,2.39,0,0,0-3.45,0,3.22,3.22,0,0,0-.62,2.21Z" transform="translate(0 -0.07)" fill="#231f20"/><path d="M775.48,72.51V63.92h3.65a6.44,6.44,0,0,1,2,.23,2,2,0,0,1,1,.82,2.51,2.51,0,0,1,.37,1.36,2.31,2.31,0,0,1-.56,1.59,2.77,2.77,0,0,1-1.7.8,4.63,4.63,0,0,1,.93.72,10.66,10.66,0,0,1,1,1.39l1.05,1.68h-2.07l-1.26-1.87a12.6,12.6,0,0,0-.91-1.26,1.25,1.25,0,0,0-.52-.36,2.88,2.88,0,0,0-.87-.1h-.36v3.59Zm1.73-5h1.29a6.82,6.82,0,0,0,1.56-.1,1,1,0,0,0,.48-.37,1.11,1.11,0,0,0,.18-.64,1.05,1.05,0,0,0-.23-.7,1.09,1.09,0,0,0-.66-.34h-2.62Z" transform="translate(0 -0.07)" fill="#231f20"/><path d="M784.14,72.51V63.92h6.37v1.45h-4.64v1.91h4.32v1.44h-4.32V71.1h4.8v1.45Z" transform="translate(0 -0.07)" fill="#231f20"/><path d="M775.47,93.27h3.14a6,6,0,0,1,1.63.16,2.88,2.88,0,0,1,1.3.79,3.77,3.77,0,0,1,.82,1.39,6.76,6.76,0,0,1,.28,2,5.68,5.68,0,0,1-.27,1.83,3.82,3.82,0,0,1-.91,1.52,3.07,3.07,0,0,1-1.22.68,5,5,0,0,1-1.54.19h-3.26Zm1.73,1.45v5.69h1.3a4.65,4.65,0,0,0,1-.08,1.56,1.56,0,0,0,.7-.36,2,2,0,0,0,.45-.83,5.91,5.91,0,0,0,.18-1.57A5,5,0,0,0,780.7,96a2,2,0,0,0-.49-.84,1.77,1.77,0,0,0-.81-.4,8.46,8.46,0,0,0-1.42-.08Z" transform="translate(0 -0.07)" fill="#231f20"/><path d="M784.14,101.86V93.27h6.37v1.45h-4.64v1.9h4.32v1.49h-4.32v2.34h4.8v1.45Z" transform="translate(0 -0.07)" fill="#231f20"/><path d="M775.47,123.94h3.14a6.4,6.4,0,0,1,1.63.16,3.07,3.07,0,0,1,1.3.79,3.89,3.89,0,0,1,.82,1.4,6.49,6.49,0,0,1,.28,2,5.68,5.68,0,0,1-.27,1.83,3.82,3.82,0,0,1-.91,1.52,3.36,3.36,0,0,1-1.22.69,5.69,5.69,0,0,1-1.54.18h-3.26Zm1.73,1.45v5.74h1.3a5.31,5.31,0,0,0,1-.08,1.67,1.67,0,0,0,.7-.36,1.93,1.93,0,0,0,.45-.83,6,6,0,0,0,.18-1.58,5,5,0,0,0-.18-1.53,2.13,2.13,0,0,0-.49-.83,1.69,1.69,0,0,0-.81-.41,9.66,9.66,0,0,0-1.42-.08Z" transform="translate(0 -0.07)" fill="#231f20"/><path d="M784.09,132.54v-8.6h1.73v8.6Z" transform="translate(0 -0.07)" fill="#231f20"/><path d="M714.19,177.58v-1.44h3.74v3.44a4.65,4.65,0,0,1-1.58.92,5.93,5.93,0,0,1-2.09.41,4.7,4.7,0,0,1-2.35-.57,3.64,3.64,0,0,1-1.51-1.62,5.2,5.2,0,0,1-.5-2.29,5,5,0,0,1,.56-2.39,3.92,3.92,0,0,1,1.65-1.6,4.53,4.53,0,0,1,2-.43,4.18,4.18,0,0,1,2.5.67,3,3,0,0,1,1.16,1.86l-1.72.32a1.88,1.88,0,0,0-.68-1,2.16,2.16,0,0,0-1.26-.36,2.34,2.34,0,0,0-1.8.72,3,3,0,0,0-.67,2.14,3.34,3.34,0,0,0,.68,2.3,2.3,2.3,0,0,0,1.78.76,3.4,3.4,0,0,0,1.09-.21,4.1,4.1,0,0,0,.94-.52V177.6Z" transform="translate(0 -0.07)" fill="#231f20"/><path d="M719.58,180.74v-8.6h1.69l3.51,5.75v-5.75h1.62v8.6h-1.82l-3.46-5.61v5.61Z" transform="translate(0 -0.07)" fill="#231f20"/><path d="M728.2,172.14h3.17a6.48,6.48,0,0,1,1.64.16,3,3,0,0,1,1.29.8,3.85,3.85,0,0,1,.82,1.39,6.49,6.49,0,0,1,.28,2,5.73,5.73,0,0,1-.26,1.84,3.87,3.87,0,0,1-.92,1.51,3.22,3.22,0,0,1-1.22.69,5.67,5.67,0,0,1-1.53.18H728.2Zm1.74,1.45v5.7h1.29a5.31,5.31,0,0,0,1-.08,1.67,1.67,0,0,0,.7-.36,1.7,1.7,0,0,0,.45-.83,6,6,0,0,0,.18-1.58,5,5,0,0,0-.18-1.53,2,2,0,0,0-.49-.83,1.73,1.73,0,0,0-.8-.4,8.47,8.47,0,0,0-1.42-.09Z" transform="translate(0 -0.07)" fill="#231f20"/><path d="M634.63,65.93h-1.89L632,64h-3.45l-.71,2H626l3.34-8.59h1.85Zm-3.2-3.39-1.19-3.19-1.16,3.19Z" transform="translate(0 -0.07)" fill="#231f20"/><path d="M628.32,110.7h3.44a11.14,11.14,0,0,1,1.52.08,2.34,2.34,0,0,1,.9.36,2.28,2.28,0,0,1,.66.72,2,2,0,0,1-.07,2.11,2.07,2.07,0,0,1-.88.75,2.32,2.32,0,0,1,1.21.78,2.09,2.09,0,0,1,.42,1.3,2.62,2.62,0,0,1-.27,1.14,2.28,2.28,0,0,1-.75.88,2.46,2.46,0,0,1-1.16.41c-.29,0-1,0-2.09.06h-2.93Zm1.73,1.43v2h2.41a1.18,1.18,0,0,0,.7-.31.92.92,0,0,0,.25-.67.9.9,0,0,0-.74-1h-2.62Zm0,3.41v2.3h1.62a7.75,7.75,0,0,0,1.18,0,1.12,1.12,0,0,0,.63-.34,1.06,1.06,0,0,0,.25-.73,1.09,1.09,0,0,0-.19-.66,1,1,0,0,0-.54-.39,6.17,6.17,0,0,0-1.54-.13Z" transform="translate(0 -0.07)" fill="#231f20"/><rect x="643.46" y="0.75" width="122.5" height="164.9" fill="#fff" stroke="#231f20" stroke-miterlimit="10" stroke-width="1.5"/><path d="M703.51,117.12a2.66,2.66,0,1,0,2.67-2.65h0a2.64,2.64,0,0,0-2.66,2.64Z" transform="translate(0 -0.07)" fill="#fff" stroke="#231f20" stroke-miterlimit="10" stroke-width="1.5"/><polygon points="735.36 104.15 735.36 154.44 691 129.29 735.36 104.15" fill="#fff" stroke="#231f20" stroke-miterlimit="10" stroke-width="1.5"/><polygon points="691 12.15 691 62.45 735.36 37.3 691 12.15" fill="#fff" stroke="#231f20" stroke-miterlimit="10" stroke-width="1.5"/><path d="M685.62,54.83a2.66,2.66,0,1,0,2.67-2.65h0a2.64,2.64,0,0,0-2.66,2.62Z" transform="translate(0 -0.07)" fill="#fff" stroke="#231f20" stroke-miterlimit="10" stroke-width="1.5"/><path d="M717,49.5a2.66,2.66,0,1,0,2.67-2.65h-.06A2.65,2.65,0,0,0,717,49.5Z" transform="translate(0 -0.07)" fill="#fff" stroke="#231f20" stroke-miterlimit="10" stroke-width="1.5"/><line x1="765.89" y1="37.19" x2="734.96" y2="37.19" fill="none" stroke="#231f20" stroke-miterlimit="10" stroke-width="1.5"/><line x1="765.89" y1="129.17" x2="734.96" y2="129.17" fill="none" stroke="#231f20" stroke-miterlimit="10" stroke-width="1.5"/><path d="M709.48,166h0a6.12,6.12,0,1,1-6.11-6.11h0a6.1,6.1,0,0,1,6.1,6.1Z" transform="translate(0 -0.07)" fill="#fff" stroke="#010101" stroke-width="1.5" fill-rule="evenodd"/><path d="M771.67,37.31h0a6.11,6.11,0,1,1-6.11-6.12h0a6.12,6.12,0,0,1,6.11,6.12Z" transform="translate(0 -0.07)" fill="#fff" stroke="#010101" stroke-width="1.5" fill-rule="evenodd"/><path d="M771.67,129.51h0a6.11,6.11,0,1,1-6.11-6.12h0A6.11,6.11,0,0,1,771.67,129.51Z" transform="translate(0 -0.07)" fill="#fff" stroke="#010101" stroke-width="1.5" fill-rule="evenodd"/><polyline points="719.62 52.08 719.62 68.53 764.84 68.53" fill="none" stroke="#231f20" stroke-miterlimit="10" stroke-width="1.5"/><polyline points="719.62 113.18 719.62 96.7 764.84 96.7" fill="none" stroke="#231f20" stroke-miterlimit="10" stroke-width="1.5"/><path d="M771.67,96.57h0a6.11,6.11,0,1,1-6.12-6.1h0A6.11,6.11,0,0,1,771.67,96.57Z" transform="translate(0 -0.07)" fill="#fff" stroke="#010101" stroke-width="1.5" fill-rule="evenodd"/><path d="M771.67,68.47h0a6.11,6.11,0,1,1-6.11-6.11h0a6.11,6.11,0,0,1,6.11,6.11Z" transform="translate(0 -0.07)" fill="#fff" stroke="#010101" stroke-width="1.5" fill-rule="evenodd"/><polyline points="685.62 54.76 675.88 54.76 675.88 116.84 703.51 116.84" fill="none" stroke="#010101" stroke-width="1.5"/><polyline points="690.81 20.9 660.14 20.9 660.14 146.96 722.16 146.96" fill="none" stroke="#231f20" stroke-miterlimit="10" stroke-width="1.5"/><path d="M678.69,105.93h0a2.89,2.89,0,1,0-3,2.81h.07a2.84,2.84,0,0,0,2.88-2.8Z" transform="translate(0 -0.07)" fill="#010101" stroke="#010101" stroke-miterlimit="14.31" stroke-width="1"/><path d="M662.68,70.57h0a2.88,2.88,0,1,0-2.94,2.82h.06a2.84,2.84,0,0,0,2.88-2.8Z" transform="translate(0 -0.07)" fill="#010101" stroke="#010101" stroke-miterlimit="14.31" stroke-width="1"/><polyline points="180.83 104.95 180.83 96.51 178.5 95.25 183.43 92.37 178.47 89.41 183.43 86.49 178.5 83.66 183.43 80.73 180.83 79.2 180.83 71.01" fill="none" stroke="#010101" stroke-miterlimit="14.31" stroke-width="1.5"/><path d="M183.84,70.29h0a2.88,2.88,0,1,0-3,2.81H181a2.84,2.84,0,0,0,2.87-2.81Z" transform="translate(0 -0.07)" fill="#010101" stroke="#010101" stroke-miterlimit="14.31" stroke-width="1"/><path d="M183.84,105.64h0a2.88,2.88,0,1,0-3,2.81H181a2.85,2.85,0,0,0,2.87-2.81Z" transform="translate(0 -0.07)" fill="#010101" stroke="#010101" stroke-miterlimit="14.31" stroke-width="1"/><polyline points="612.48 105.33 612.48 96.89 610.15 95.63 615.08 92.75 610.12 89.79 615.08 86.87 610.15 84.03 615.08 81.11 612.48 79.58 612.48 71.39" fill="none" stroke="#010101" stroke-miterlimit="14.31" stroke-width="1.5"/><path d="M615.54,70.66h0a2.88,2.88,0,1,0-2.94,2.82h.06a2.85,2.85,0,0,0,2.88-2.82Z" transform="translate(0 -0.07)" fill="#010101" stroke="#010101" stroke-miterlimit="14.31" stroke-width="1"/><path d="M615.54,106h0a2.88,2.88,0,1,0-2.95,2.81h.07A2.85,2.85,0,0,0,615.54,106Z" transform="translate(0 -0.07)" fill="#010101" stroke="#010101" stroke-miterlimit="14.31" stroke-width="1"/><path d="M161.35,90.05v-8.6H165a6.45,6.45,0,0,1,2,.24,1.92,1.92,0,0,1,1,.82,2.5,2.5,0,0,1,.38,1.36,2.28,2.28,0,0,1-.57,1.59,2.74,2.74,0,0,1-1.7.8A3.8,3.8,0,0,1,167,87a9.79,9.79,0,0,1,1,1.39l1,1.68H167l-1.25-1.87a10.42,10.42,0,0,0-.92-1.26,1.17,1.17,0,0,0-.52-.36,2.56,2.56,0,0,0-.87-.1h-.35v3.59Zm1.74-5h1.28a7.4,7.4,0,0,0,1.56-.1,1,1,0,0,0,.49-.37,1.14,1.14,0,0,0,.17-.64,1,1,0,0,0-.23-.7,1,1,0,0,0-.65-.34h-2.62Z" transform="translate(0 -0.07)" fill="#231f20"/><path d="M171.51,93.05V87.11h-2.16V85.89H175v1.22h-2.11v6Z" transform="translate(0 -0.07)" fill="#231f20"/><path d="M620.09,91.11v-8.6h3.65a5.87,5.87,0,0,1,2,.23,1.92,1.92,0,0,1,1,.82,2.45,2.45,0,0,1,.37,1.35,2.26,2.26,0,0,1-.57,1.6,2.76,2.76,0,0,1-1.69.79,3.61,3.61,0,0,1,.92.73,8,8,0,0,1,1,1.39l1,1.68h-2l-1.26-1.87a12.74,12.74,0,0,0-.91-1.27,1.23,1.23,0,0,0-.52-.35,2.59,2.59,0,0,0-.88-.1h-.35v3.6Zm1.73-5h1.29a6.71,6.71,0,0,0,1.55-.11,1,1,0,0,0,.67-1,1,1,0,0,0-.89-1h-2.62Z" transform="translate(0 -0.07)" fill="#231f20"/><path d="M630.21,94.11v-6h-2.12V86.94h5.7v1.17h-2.12v6Z" transform="translate(0 -0.07)" fill="#231f20"/><path d="M702.7,41v-8.6h3.65a6.44,6.44,0,0,1,2,.23,2.11,2.11,0,0,1,1,.82,2.61,2.61,0,0,1,.38,1.36,2.3,2.3,0,0,1-.57,1.6,2.75,2.75,0,0,1-1.7.79,4,4,0,0,1,.93.73,10.66,10.66,0,0,1,1,1.39l1,1.68h-2.07l-1.22-1.9a11.75,11.75,0,0,0-.92-1.27,1.3,1.3,0,0,0-.52-.35,2.36,2.36,0,0,0-.87-.1h-.35V41Zm1.74-5h1.28a7.45,7.45,0,0,0,1.56-.11,1,1,0,0,0,.48-.36,1.21,1.21,0,0,0,.18-.64,1,1,0,0,0-.23-.7,1.1,1.1,0,0,0-.65-.35h-2.62Z" transform="translate(0 -0.07)" fill="#231f20"/><path d="M718,125.12h3.17a6.44,6.44,0,0,1,1.64.17,2.83,2.83,0,0,1,1.29.79,3.85,3.85,0,0,1,.82,1.39,6,6,0,0,1,.28,2,5.44,5.44,0,0,1-.26,1.83,3.53,3.53,0,0,1-.92,1.51,3,3,0,0,1-1.22.69,5.58,5.58,0,0,1-1.53.18H718Zm1.74,1.46v5.69h1.29a4.77,4.77,0,0,0,1-.08,1.65,1.65,0,0,0,.7-.35,1.7,1.7,0,0,0,.45-.83,5.29,5.29,0,0,0,.18-1.58,5,5,0,0,0-.18-1.54,2,2,0,0,0-.49-.83,1.69,1.69,0,0,0-.8-.4,8.4,8.4,0,0,0-1.42-.08Z" transform="translate(0 -0.07)" fill="#231f20"/><path d="M695.62,196.65h15m-2,3.11H697.77m8,3.12h-5.29" transform="translate(0 -0.07)" fill="none" stroke="#010101" stroke-miterlimit="14.31" stroke-width="1.5"/><line x1="703.14" y1="172.21" x2="703.14" y2="195.63" fill="none" stroke="#010101" stroke-linecap="square" stroke-miterlimit="14.31" stroke-width="1.5"/><path d="M.49,41.84v-8.6H4.14a6.41,6.41,0,0,1,2,.23,2,2,0,0,1,1,.83,2.38,2.38,0,0,1,.38,1.35A2.26,2.26,0,0,1,7,37.25a2.74,2.74,0,0,1-1.67.84,3.63,3.63,0,0,1,.93.72,10.5,10.5,0,0,1,1,1.4l1,1.68H6.14L4.89,40A12.83,12.83,0,0,0,4,38.7a1.23,1.23,0,0,0-.52-.35,2.56,2.56,0,0,0-.87-.1h-.3v3.59Zm1.74-5H3.51a7.4,7.4,0,0,0,1.56-.11,1.05,1.05,0,0,0,.49-.36,1.17,1.17,0,0,0,.17-.65A.93.93,0,0,0,5.5,35a1,1,0,0,0-.65-.33H2.28Z" transform="translate(0 -0.07)" fill="#231f20"/><path d="M8.8,37.59a5.47,5.47,0,0,1,.4-2.2A4.14,4.14,0,0,1,10,34.21a3.33,3.33,0,0,1,1.12-.78A4.73,4.73,0,0,1,13,33.08a4,4,0,0,1,3,1.19,4.5,4.5,0,0,1,1.14,3.27A4.54,4.54,0,0,1,16,40.8,4,4,0,0,1,13,42a4.07,4.07,0,0,1-3-1.17A4.47,4.47,0,0,1,8.8,37.59Zm1.79-.06a3.29,3.29,0,0,0,.69,2.22,2.32,2.32,0,0,0,3.28.14l.15-.14a3.33,3.33,0,0,0,.66-2.24,3.21,3.21,0,0,0-.65-2.2A2.18,2.18,0,0,0,13,34.58a2.16,2.16,0,0,0-1.73.74A3.24,3.24,0,0,0,10.59,37.53Z" transform="translate(0 -0.07)" fill="#231f20"/><path d="M.16,72.51V63.92H3.81a6.41,6.41,0,0,1,2,.23,1.92,1.92,0,0,1,1,.82,2.51,2.51,0,0,1,.37,1.36,2.31,2.31,0,0,1-.56,1.59,2.72,2.72,0,0,1-1.7.8,4.37,4.37,0,0,1,.93.72,9.79,9.79,0,0,1,1,1.39l1,1.68h-2L4.55,70.64a11.19,11.19,0,0,0-.91-1.26A1.25,1.25,0,0,0,3.12,69a2.9,2.9,0,0,0-.88-.1H1.89v3.59Zm1.73-5H3.18a6.79,6.79,0,0,0,1.56-.1.92.92,0,0,0,.48-.31,1,1,0,0,0,.18-.64,1,1,0,0,0-.89-1H1.89Z" transform="translate(0 -0.07)" fill="#231f20"/><path d="M8.82,72.51V63.92H15.2v1.45H10.55v1.91h4.33v1.44H10.55V71.1h4.81v1.45Z" transform="translate(0 -0.07)" fill="#231f20"/><path d="M.15,93.27H3.28a5.94,5.94,0,0,1,1.63.16,2.78,2.78,0,0,1,1.3.79A3.77,3.77,0,0,1,7,95.61a6.45,6.45,0,0,1,.28,2A5.18,5.18,0,0,1,7,99.44,3.6,3.6,0,0,1,6.12,101a3,3,0,0,1-1.21.68,5,5,0,0,1-1.54.19H.15Zm1.73,1.45v5.69h1.3a4.5,4.5,0,0,0,1.1-.08A1.56,1.56,0,0,0,5,100a2,2,0,0,0,.4-.86,5.19,5.19,0,0,0,.18-1.57A5,5,0,0,0,5.38,96a2,2,0,0,0-.49-.84,1.77,1.77,0,0,0-.81-.4,8.4,8.4,0,0,0-1.42-.08Z" transform="translate(0 -0.07)" fill="#231f20"/><path d="M8.82,101.86V93.27H15.2v1.45H10.55v1.9h4.33v1.49H10.55v2.34h4.81v1.45Z" transform="translate(0 -0.07)" fill="#231f20"/><path d="M6.48,123.94H9.65a6.37,6.37,0,0,1,1.63.18,3,3,0,0,1,1.3.79,3.89,3.89,0,0,1,.82,1.4,6.49,6.49,0,0,1,.28,2,6,6,0,0,1-.26,1.83,4,4,0,0,1-.92,1.52,3.4,3.4,0,0,1-1.23.69,5.58,5.58,0,0,1-1.53.18H6.48Zm1.74,1.45v5.74H9.51a5.55,5.55,0,0,0,1-.08,1.67,1.67,0,0,0,.7-.36,1.62,1.62,0,0,0,.45-.83,5.65,5.65,0,0,0,.19-1.58,5.31,5.31,0,0,0-.19-1.53,1.86,1.86,0,0,0-.49-.83,1.7,1.7,0,0,0-.8-.41A9.58,9.58,0,0,0,9,125.43Z" transform="translate(0 -0.07)" fill="#231f20"/><path d="M15.11,132.54v-8.6h1.74v8.6Z" transform="translate(0 -0.07)" fill="#231f20"/><path d="M99.69,177.58v-1.44h3.74v3.44a4.72,4.72,0,0,1-1.58.92,6,6,0,0,1-2.1.41,4.8,4.8,0,0,1-2.35-.57,3.62,3.62,0,0,1-1.5-1.62,5.21,5.21,0,0,1-.51-2.29A4.87,4.87,0,0,1,96,174a3.78,3.78,0,0,1,1.64-1.6,4.57,4.57,0,0,1,2.06-.43,4.16,4.16,0,0,1,2.5.67,3.08,3.08,0,0,1,1.16,1.86l-1.73.32a1.88,1.88,0,0,0-.68-1,2.12,2.12,0,0,0-1.25-.36,2.36,2.36,0,0,0-1.81.72,3,3,0,0,0-.67,2.14,3.39,3.39,0,0,0,.68,2.3,2.3,2.3,0,0,0,1.78.76,3.41,3.41,0,0,0,1.1-.21,4.1,4.1,0,0,0,.94-.52V177.6Z" transform="translate(0 -0.07)" fill="#231f20"/><path d="M105,180.74v-8.6h1.69l3.53,5.75v-5.75h1.61v8.6h-1.74l-3.47-5.61v5.61Z" transform="translate(0 -0.07)" fill="#231f20"/><path d="M113.7,172.14h3.17a6.36,6.36,0,0,1,1.63.16,2.88,2.88,0,0,1,1.3.8,3.85,3.85,0,0,1,.82,1.39,6.49,6.49,0,0,1,.28,2,5.74,5.74,0,0,1-.27,1.84,3.63,3.63,0,0,1-.92,1.51,3.11,3.11,0,0,1-1.21.69,5.69,5.69,0,0,1-1.54.18H113.7Zm1.73,1.45v5.7h1.3a4.82,4.82,0,0,0,1-.08,1.67,1.67,0,0,0,.7-.36,1.83,1.83,0,0,0,.45-.83,5.29,5.29,0,0,0,.18-1.58,5,5,0,0,0-.18-1.53,2,2,0,0,0-.49-.83,1.77,1.77,0,0,0-.81-.4,8.47,8.47,0,0,0-1.42-.09Z" transform="translate(0 -0.07)" fill="#231f20"/><path d="M165.62,65.93h-1.89L163,64h-3.43l-.71,2H157l3.35-8.59h1.83Zm-3.19-3.39-1.19-3.19-1.16,3.19Z" transform="translate(0 -0.07)" fill="#231f20"/><path d="M157.88,110.7h3.47a11.21,11.21,0,0,1,1.53.08,2.1,2.1,0,0,1,.89.36,2.08,2.08,0,0,1,.66.72,1.85,1.85,0,0,1,.26,1,2,2,0,0,1-1.2,1.86,2.36,2.36,0,0,1,1.2.78,2,2,0,0,1,.43,1.3,2.49,2.49,0,0,1-.28,1.14,2.26,2.26,0,0,1-.74.88,2.46,2.46,0,0,1-1.16.41c-.29,0-1,0-2.09.06h-2.93Zm1.74,1.43v2H162a1.15,1.15,0,0,0,.7-.31.93.93,0,0,0,.26-.67.89.89,0,0,0-.83-1h-1.53Zm0,3.41v2.3h1.6a7.88,7.88,0,0,0,1.19,0,1,1,0,0,0,.87-1.07,1.2,1.2,0,0,0-.18-.66,1.08,1.08,0,0,0-.55-.39,5.63,5.63,0,0,0-1.53-.13Z" transform="translate(0 -0.07)" fill="#231f20"/><rect x="26.61" y="0.75" width="122.5" height="164.9" fill="#fff" stroke="#231f20" stroke-miterlimit="10" stroke-width="1.5"/><path d="M89.07,117.12a2.66,2.66,0,1,1-2.67-2.65h0a2.64,2.64,0,0,1,2.65,2.63Z" transform="translate(0 -0.07)" fill="#fff" stroke="#231f20" stroke-miterlimit="10" stroke-width="1.5"/><polygon points="57.21 104.15 57.21 154.44 101.58 129.29 57.21 104.15" fill="#fff" stroke="#231f20" stroke-miterlimit="10" stroke-width="1.5"/><polygon points="101.58 12.15 101.58 62.45 57.21 37.3 101.58 12.15" fill="#fff" stroke="#231f20" stroke-miterlimit="10" stroke-width="1.5"/><path d="M107,54.83a2.66,2.66,0,1,1-2.67-2.65h0A2.64,2.64,0,0,1,107,54.83Z" transform="translate(0 -0.07)" fill="#fff" stroke="#231f20" stroke-miterlimit="10" stroke-width="1.5"/><path d="M75.61,49.5a2.66,2.66,0,1,1-2.67-2.65h0a2.64,2.64,0,0,1,2.66,2.62Z" transform="translate(0 -0.07)" fill="#fff" stroke="#231f20" stroke-miterlimit="10" stroke-width="1.5"/><line x1="26.68" y1="37.19" x2="57.62" y2="37.19" fill="none" stroke="#231f20" stroke-miterlimit="10" stroke-width="1.5"/><line x1="26.68" y1="129.17" x2="57.62" y2="129.17" fill="none" stroke="#231f20" stroke-miterlimit="10" stroke-width="1.5"/><path d="M83.09,166h0a6.12,6.12,0,1,0,6.12-6.11A6.11,6.11,0,0,0,83.09,166Z" transform="translate(0 -0.07)" fill="#fff" stroke="#010101" stroke-width="1.5" fill-rule="evenodd"/><path d="M20.91,37.31h0A6.11,6.11,0,1,0,27,31.19,6.12,6.12,0,0,0,20.91,37.31Z" transform="translate(0 -0.07)" fill="#fff" stroke="#010101" stroke-width="1.5" fill-rule="evenodd"/><path d="M20.91,129.51h0A6.11,6.11,0,1,0,27,123.39a6.12,6.12,0,0,0-6.11,6.12Z" transform="translate(0 -0.07)" fill="#fff" stroke="#010101" stroke-width="1.5" fill-rule="evenodd"/><polyline points="72.95 52.08 72.95 68.53 27.73 68.53" fill="none" stroke="#231f20" stroke-miterlimit="10" stroke-width="1.5"/><polyline points="72.95 113.18 72.95 96.7 27.73 96.7" fill="none" stroke="#231f20" stroke-miterlimit="10" stroke-width="1.5"/><path d="M20.91,96.57h0A6.11,6.11,0,1,0,27,90.47h0A6.11,6.11,0,0,0,20.91,96.57Z" transform="translate(0 -0.07)" fill="#fff" stroke="#010101" stroke-width="1.5" fill-rule="evenodd"/><path d="M20.91,68.47h0A6.11,6.11,0,1,0,27,62.36,6.11,6.11,0,0,0,20.91,68.47Z" transform="translate(0 -0.07)" fill="#fff" stroke="#010101" stroke-width="1.5" fill-rule="evenodd"/><polyline points="106.95 54.76 116.7 54.76 116.7 116.84 89.07 116.84" fill="none" stroke="#010101" stroke-width="1.5"/><polyline points="101.76 20.9 132.45 20.9 132.45 146.96 70.42 146.96" fill="none" stroke="#231f20" stroke-miterlimit="10" stroke-width="1.5"/><path d="M113.9,105.93h0a2.88,2.88,0,1,1,2.95,2.81h-.08a2.84,2.84,0,0,1-2.87-2.81Z" transform="translate(0 -0.07)" fill="#010101" stroke="#010101" stroke-miterlimit="14.31" stroke-width="1"/><path d="M129.9,70.57h0a2.89,2.89,0,1,1,2.95,2.82h-.07a2.85,2.85,0,0,1-2.88-2.81Z" transform="translate(0 -0.07)" fill="#010101" stroke="#010101" stroke-miterlimit="14.31" stroke-width="1"/><path d="M82.85,41v-8.6h3.66a6.44,6.44,0,0,1,2,.23,2.11,2.11,0,0,1,1,.82,2.61,2.61,0,0,1,.38,1.36,2.3,2.3,0,0,1-.57,1.6,2.75,2.75,0,0,1-1.7.79,3.85,3.85,0,0,1,.93.73,10.66,10.66,0,0,1,1,1.39l1,1.68h-2l-1.25-1.9a11.53,11.53,0,0,0-.94-1.24,1.23,1.23,0,0,0-.52-.35,2.36,2.36,0,0,0-.87-.1h-.35V41Zm1.75-5h1.28a7.45,7.45,0,0,0,1.56-.11,1.16,1.16,0,0,0,.49-.36,1.33,1.33,0,0,0,.17-.64,1,1,0,0,0-.23-.7,1.1,1.1,0,0,0-.65-.35H84.6Z" transform="translate(0 -0.07)" fill="#231f20"/><path d="M69,125.12h3.17a6.36,6.36,0,0,1,1.63.17,2.78,2.78,0,0,1,1.3.79,3.85,3.85,0,0,1,.82,1.39,6.51,6.51,0,0,1,.28,2,5.42,5.42,0,0,1-.27,1.83,3.63,3.63,0,0,1-.92,1.51,3,3,0,0,1-1.21.69,5.69,5.69,0,0,1-1.54.18H69Zm1.73,1.46v5.69h1.3a4.77,4.77,0,0,0,1-.08,1.65,1.65,0,0,0,.7-.35,2,2,0,0,0,.46-.83,5.63,5.63,0,0,0,.17-1.58,5.32,5.32,0,0,0-.17-1.54,2,2,0,0,0-.49-.83,1.77,1.77,0,0,0-.81-.4,7.47,7.47,0,0,0-1.42-.08Z" transform="translate(0 -0.07)" fill="#231f20"/><path d="M81.78,196.65h15m-2.12,3.11H83.9m8,3.12H86.66" transform="translate(0 -0.07)" fill="none" stroke="#010101" stroke-miterlimit="14.31" stroke-width="1.5"/><line x1="89.29" y1="172.21" x2="89.29" y2="195.63" fill="none" stroke="#010101" stroke-linecap="square" stroke-miterlimit="14.31" stroke-width="1.5"/><path d="M92.19,187.29h0a2.88,2.88,0,1,0-2.9,2.86h0a2.84,2.84,0,0,0,2.88-2.8h0Z" transform="translate(0 -0.07)" fill="#010101" stroke="#010101" stroke-miterlimit="14.31" stroke-width="1"/><path d="M705.74,187.29h0a2.88,2.88,0,1,0-3,2.81h.08a2.84,2.84,0,0,0,2.87-2.81Z" transform="translate(0 -0.07)" fill="#010101" stroke="#010101" stroke-miterlimit="14.31" stroke-width="1"/><line x1="702.81" y1="186.97" x2="90.46" y2="186.97" fill="none" stroke="#010101" stroke-miterlimit="14.31" stroke-width="1.5"/><path d="M221.26,352.92v-8.59h3.65a6.22,6.22,0,0,1,2,.23,2,2,0,0,1,1,.82,2.49,2.49,0,0,1,.37,1.36,2.32,2.32,0,0,1-.57,1.59,2.72,2.72,0,0,1-1.7.8,4,4,0,0,1,.93.72,9.26,9.26,0,0,1,1,1.39l1.05,1.68h-2.07l-1.27-1.87a10.06,10.06,0,0,0-.91-1.26,1.25,1.25,0,0,0-.52-.36,2.59,2.59,0,0,0-.88-.1H223v3.59Zm1.73-5h1.28a7.36,7.36,0,0,0,1.56-.1,1.08,1.08,0,0,0,.5-.37,1.21,1.21,0,0,0,.18-.64,1,1,0,0,0-.9-1H223Z" transform="translate(0 -0.07)" fill="#231f20"/><path d="M229.58,348.68a5.38,5.38,0,0,1,.39-2.21,3.64,3.64,0,0,1,.8-1.17,3.2,3.2,0,0,1,1.11-.78,4.67,4.67,0,0,1,1.85-.34,4,4,0,0,1,3,1.18,5.27,5.27,0,0,1,0,6.53,4.54,4.54,0,0,1-6.07,0A4.4,4.4,0,0,1,229.58,348.68Zm1.78-.06a3.17,3.17,0,0,0,.68,2.21,2.32,2.32,0,0,0,3.28.13l.13-.13a3.32,3.32,0,0,0,.66-2.25,3.26,3.26,0,0,0-.64-2.2,2.38,2.38,0,0,0-3.38-.07.23.23,0,0,0-.07.07,3.22,3.22,0,0,0-.64,2.24Z" transform="translate(0 -0.07)" fill="#231f20"/><path d="M281.52,344.33h3.17a6.05,6.05,0,0,1,1.64.16,2.82,2.82,0,0,1,1.29.8,3.45,3.45,0,0,1,.82,1.39,6.13,6.13,0,0,1,.29,2,5.68,5.68,0,0,1-.27,1.83,3.63,3.63,0,0,1-.92,1.51,3,3,0,0,1-1.22.69,5.62,5.62,0,0,1-1.53.18h-3.27Zm1.74,1.45v5.69h1.29a4.65,4.65,0,0,0,1.05-.08,1.56,1.56,0,0,0,.7-.36,1.71,1.71,0,0,0,.46-.83,5.56,5.56,0,0,0,.17-1.57,5.25,5.25,0,0,0-.17-1.53,1.91,1.91,0,0,0-.5-.83,1.52,1.52,0,0,0-.8-.4,6.78,6.78,0,0,0-1.42-.09Z" transform="translate(0 -0.07)" fill="#231f20"/><path d="M290.2,352.92v-8.59h6.37v1.45h-4.64v1.91h4.31v1.45h-4.31v2.33h4.8v1.45Z" transform="translate(0 -0.07)" fill="#231f20"/><path d="M316.41,344.33h3.17a5.94,5.94,0,0,1,1.63.16,2.88,2.88,0,0,1,1.31.8,3.69,3.69,0,0,1,.82,1.39,6.71,6.71,0,0,1,.28,2,6,6,0,0,1-.26,1.83,4,4,0,0,1-.92,1.51,3.18,3.18,0,0,1-1.23.69,5.69,5.69,0,0,1-1.54.18h-3.26Zm1.73,1.45v5.69h1.27a4.56,4.56,0,0,0,1-.08,1.67,1.67,0,0,0,.7-.36,1.8,1.8,0,0,0,.46-.83,5.91,5.91,0,0,0,.18-1.57,5.58,5.58,0,0,0-.18-1.53,2,2,0,0,0-.5-.83,1.52,1.52,0,0,0-.8-.4,6.83,6.83,0,0,0-1.43-.09Z" transform="translate(0 -0.07)" fill="#231f20"/><path d="M325,352.92v-8.59h1.73v8.59Z" transform="translate(0 -0.07)" fill="#231f20"/><path d="M367.36,283.82v-1.45h3.75v3.43a4.65,4.65,0,0,1-1.58.92,5.61,5.61,0,0,1-2.1.41,4.6,4.6,0,0,1-2.35-.57,3.7,3.7,0,0,1-1.51-1.62,5.17,5.17,0,0,1-.5-2.29,4.91,4.91,0,0,1,.56-2.38,3.7,3.7,0,0,1,1.65-1.6,4.35,4.35,0,0,1,2-.43,4.14,4.14,0,0,1,2.51.67,3,3,0,0,1,1.16,1.86l-1.72.32a1.92,1.92,0,0,0-.7-1,2,2,0,0,0-1.25-.36,2.39,2.39,0,0,0-1.81.72,3.09,3.09,0,0,0-.67,2.13,3.4,3.4,0,0,0,.68,2.3,2.28,2.28,0,0,0,1.78.76,3,3,0,0,0,1.1-.21,3.82,3.82,0,0,0,.95-.52v-1.09Z" transform="translate(0 -0.07)" fill="#231f20"/><path d="M372.73,287v-8.59h1.71l3.52,5.74v-5.74h1.61V287h-1.74l-3.46-5.6V287Z" transform="translate(0 -0.07)" fill="#231f20"/><path d="M381.37,278.39h3.17a5.94,5.94,0,0,1,1.63.16,3,3,0,0,1,1.3.79,3.81,3.81,0,0,1,.82,1.4,5.9,5.9,0,0,1,.28,2,5.61,5.61,0,0,1-.26,1.82,3.73,3.73,0,0,1-.92,1.52,3.15,3.15,0,0,1-1.22.69,5,5,0,0,1-1.54.18h-3.26Zm1.73,1.45v5.69h1.34a5.25,5.25,0,0,0,1.05-.08,1.56,1.56,0,0,0,.7-.36,1.78,1.78,0,0,0,.45-.83,5.19,5.19,0,0,0,.18-1.57,4.94,4.94,0,0,0-.18-1.53,2,2,0,0,0-.49-.83,1.62,1.62,0,0,0-.8-.41,7.58,7.58,0,0,0-1.43-.08Z" transform="translate(0 -0.07)" fill="#231f20"/><rect x="192.85" y="209.7" width="164.9" height="122.5" fill="#fff" stroke="#231f20" stroke-miterlimit="10" stroke-width="1.5"/><path d="M309.1,269.81a2.67,2.67,0,1,1-2.65,2.68h0a2.66,2.66,0,0,1,2.64-2.67Z" transform="translate(0 -0.07)" fill="#fff" stroke="#231f20" stroke-miterlimit="10" stroke-width="1.5"/><polygon points="296.25 301.6 346.55 301.6 321.39 257.24 296.25 301.6" fill="#fff" stroke="#231f20" stroke-miterlimit="10" stroke-width="1.5"/><polygon points="204.26 257.24 254.55 257.24 229.41 301.6 204.26 257.24" fill="#fff" stroke="#231f20" stroke-miterlimit="10" stroke-width="1.5"/><path d="M246.86,251.93a2.66,2.66,0,1,1-2.65,2.67h0a2.65,2.65,0,0,1,2.64-2.66Z" transform="translate(0 -0.07)" fill="#fff" stroke="#231f20" stroke-miterlimit="10" stroke-width="1.5"/><path d="M241.53,283.27a2.66,2.66,0,1,1-2.65,2.67h0a2.64,2.64,0,0,1,2.62-2.66Z" transform="translate(0 -0.07)" fill="#fff" stroke="#231f20" stroke-miterlimit="10" stroke-width="1.5"/><line x1="229.29" y1="332.13" x2="229.29" y2="301.2" fill="none" stroke="#231f20" stroke-miterlimit="10" stroke-width="1.5"/><line x1="321.27" y1="332.13" x2="321.27" y2="301.2" fill="none" stroke="#231f20" stroke-miterlimit="10" stroke-width="1.5"/><path d="M358.06,275.79h0a6.12,6.12,0,1,0-6.11-6.12h0A6.11,6.11,0,0,0,358.06,275.79Z" transform="translate(0 -0.07)" fill="#fff" stroke="#010101" stroke-width="1.5" fill-rule="evenodd"/><path d="M229.38,338h0a6.11,6.11,0,1,0-6.11-6.12v0A6.11,6.11,0,0,0,229.38,338Z" transform="translate(0 -0.07)" fill="#fff" stroke="#010101" stroke-width="1.5" fill-rule="evenodd"/><path d="M321.54,338h0a6.11,6.11,0,1,0-6.12-6.11h0A6.12,6.12,0,0,0,321.54,338Z" transform="translate(0 -0.07)" fill="#fff" stroke="#010101" stroke-width="1.5" fill-rule="evenodd"/><polyline points="244.18 285.86 260.63 285.86 260.63 331.08" fill="none" stroke="#231f20" stroke-miterlimit="10" stroke-width="1.5"/><polyline points="305.28 285.86 288.8 285.86 288.8 331.08" fill="none" stroke="#231f20" stroke-miterlimit="10" stroke-width="1.5"/><path d="M288.61,338h0a6.11,6.11,0,1,0-6.11-6.11h0a6.1,6.1,0,0,0,6.1,6.1Z" transform="translate(0 -0.07)" fill="#fff" stroke="#010101" stroke-width="1.5" fill-rule="evenodd"/><path d="M260.5,338h0a6.11,6.11,0,1,0-6.11-6.11h0A6.11,6.11,0,0,0,260.5,338Z" transform="translate(0 -0.07)" fill="#fff" stroke="#010101" stroke-width="1.5" fill-rule="evenodd"/><polyline points="246.86 251.86 246.86 242.12 308.94 242.12 308.94 269.74" fill="none" stroke="#010101" stroke-width="1.5"/><polyline points="213 257.05 213 226.37 339.05 226.37 339.05 288.39" fill="none" stroke="#231f20" stroke-miterlimit="10" stroke-width="1.5"/><path d="M292.19,245h0A2.88,2.88,0,1,1,295,242v.08a2.83,2.83,0,0,1-2.81,2.87Z" transform="translate(0 -0.07)" fill="#010101" stroke="#010101" stroke-miterlimit="14.31" stroke-width="1"/><path d="M268.39,229h0A2.88,2.88,0,1,1,271.2,226v.08a2.84,2.84,0,0,1-2.81,2.87Z" transform="translate(0 -0.07)" fill="#010101" stroke="#010101" stroke-miterlimit="14.31" stroke-width="1"/><path d="M375,190.3h0a2.88,2.88,0,1,1,2.81-3v.07a2.84,2.84,0,0,1-2.8,2.88Z" transform="translate(0 -0.07)" fill="#010101" stroke="#010101" stroke-miterlimit="14.31" stroke-width="1"/><path d="M292.19,108.93h0a2.88,2.88,0,1,1,2.81-3v.08a2.84,2.84,0,0,1-2.81,2.87Z" transform="translate(0 -0.07)" fill="#010101" stroke="#010101" stroke-miterlimit="14.31" stroke-width="1"/><path d="M268.39,73.58h0a2.88,2.88,0,1,1,2.81-3v.08a2.84,2.84,0,0,1-2.81,2.87Z" transform="translate(0 -0.07)" fill="#010101" stroke="#010101" stroke-miterlimit="14.31" stroke-width="1"/><path d="M226.09,277.37v-8.6h3.65a6.44,6.44,0,0,1,2,.23,2,2,0,0,1,1,.83,2.51,2.51,0,0,1,.38,1.35,2.33,2.33,0,0,1-.57,1.61,2.81,2.81,0,0,1-1.7.79,4.29,4.29,0,0,1,.93.72,9.35,9.35,0,0,1,1,1.4l1.05,1.67h-2.07l-1.25-1.87a12.7,12.7,0,0,0-.92-1.26,1.52,1.52,0,0,0-.52-.36,2.58,2.58,0,0,0-.87-.09h-.35v3.58Zm1.74-4.95h1.28a7.45,7.45,0,0,0,1.56-.11,1,1,0,0,0,.48-.37,1.22,1.22,0,0,0,.18-.65,1,1,0,0,0-.89-1h-2.61Z" transform="translate(0 -0.07)" fill="#231f20"/><path d="M318.3,282.12h3.18a6.05,6.05,0,0,1,1.64.16,2.94,2.94,0,0,1,1.29.79,3.77,3.77,0,0,1,.82,1.39,6.45,6.45,0,0,1,.28,2,5.67,5.67,0,0,1-.26,1.83,3.71,3.71,0,0,1-.92,1.52,3,3,0,0,1-1.22.68,4.69,4.69,0,0,1-1.53.19H318.3Zm1.74,1.45v5.69h1.3a4.91,4.91,0,0,0,1.08-.07,1.56,1.56,0,0,0,.7-.36,1.73,1.73,0,0,0,.45-.83,5.91,5.91,0,0,0,.18-1.57,5.26,5.26,0,0,0-.18-1.53,2,2,0,0,0-.49-.83,1.66,1.66,0,0,0-.8-.41,8.52,8.52,0,0,0-1.43-.08Z" transform="translate(0 -0.07)" fill="#231f20"/><path d="M260.06,206h-1.88l-.79-1.95H254l-.71,1.95h-1.84l3.35-8.6h1.83Zm-3.19-3.4-1.18-3.19-1.16,3.19Z" transform="translate(0 -0.07)" fill="#231f20"/><path d="M302.22,197.41h3.44a9.62,9.62,0,0,1,1.52.09,2.21,2.21,0,0,1,.89.35,2.27,2.27,0,0,1,.66.72,2,2,0,0,1,.27,1,2,2,0,0,1-.33,1.12,2.1,2.1,0,0,1-.88.76,2.23,2.23,0,0,1,1.21.78,2,2,0,0,1,.42,1.29,2.55,2.55,0,0,1-.27,1.14,2.26,2.26,0,0,1-1.91,1.29c-.29,0-1,.05-2.09.06h-2.93Zm1.74,1.43v2h2.39a1.22,1.22,0,0,0,.7-.32.87.87,0,0,0,.26-.67,1,1,0,0,0-.22-.65,1,1,0,0,0-.65-.3H305Zm0,3.43v2.29h1.6a7.9,7.9,0,0,0,1.19-.05,1,1,0,0,0,.88-1.07,1.16,1.16,0,0,0-.19-.66,1.05,1.05,0,0,0-.54-.39,5.72,5.72,0,0,0-1.54-.12Z" transform="translate(0 -0.07)" fill="#231f20"/><line x1="268.44" y1="226.62" x2="268.44" y2="71.21" fill="none" stroke="#010101" stroke-miterlimit="14.31" stroke-width="1.5"/><line x1="292.35" y1="240.62" x2="292.35" y2="106.56" fill="none" stroke="#010101" stroke-miterlimit="14.31" stroke-width="1.5"/><path d="M268.45,215.94h0a6.11,6.11,0,1,0-6.11-6.11h0a6.09,6.09,0,0,0,6.09,6.11Z" transform="translate(0 -0.07)" fill="#fff" stroke="#010101" stroke-width="1.5" fill-rule="evenodd"/><path d="M292.27,215.94h0a6.11,6.11,0,1,0-6.11-6.11h0A6.12,6.12,0,0,0,292.27,215.94Z" transform="translate(0 -0.07)" fill="#fff" stroke="#010101" stroke-width="1.5" fill-rule="evenodd"/><polyline points="364.17 269.61 374.92 269.61 374.92 187.26" fill="none" stroke="#010101" stroke-width="1.5"/><path d="M252.56,352.92v-8.59h3.65a6.16,6.16,0,0,1,2,.23,1.94,1.94,0,0,1,1,.83,2.45,2.45,0,0,1,.37,1.35,2.3,2.3,0,0,1-.57,1.6,2.81,2.81,0,0,1-1.7.79,3.8,3.8,0,0,1,.93.72,8.68,8.68,0,0,1,1,1.4l1.05,1.67h-2.08L257,351.05a12.6,12.6,0,0,0-.91-1.26,1.52,1.52,0,0,0-.52-.36,3.29,3.29,0,0,0-.88-.09h-.35v3.58Zm1.73-4.95h1.28a6.83,6.83,0,0,0,1.56-.11,1.1,1.1,0,0,0,.49-.36,1.15,1.15,0,0,0,.17-.65,1,1,0,0,0-.23-.7,1,1,0,0,0-.65-.34h-2.62Z" transform="translate(0 -0.07)" fill="#231f20"/><path d="M261.22,352.92v-8.59h6.37v1.46H263v1.9h4.31v1.45H263v2.33h4.8v1.45Z" transform="translate(0 -0.07)" fill="#231f20"/><line x1="252.37" y1="342.07" x2="267.62" y2="342.07" fill="none" stroke="#010101" stroke-width="1"/><path d="M454.84,352.92v-8.59h3.63a6.13,6.13,0,0,1,2,.23,1.92,1.92,0,0,1,1,.82,2.4,2.4,0,0,1,.37,1.36,2.28,2.28,0,0,1-.57,1.59,2.72,2.72,0,0,1-1.7.8,3.63,3.63,0,0,1,.93.72,8,8,0,0,1,1,1.39l1,1.68h-2l-1.26-1.87a11.19,11.19,0,0,0-.91-1.26,1.25,1.25,0,0,0-.52-.36,2.59,2.59,0,0,0-.88-.1h-.35v3.59Zm1.73-5h1.28a7.4,7.4,0,0,0,1.56-.1,1,1,0,0,0,.49-.37,1.06,1.06,0,0,0,.18-.64.94.94,0,0,0-.24-.7,1,1,0,0,0-.65-.34h-2.62Z" transform="translate(0 -0.07)" fill="#231f20"/><path d="M463.15,348.68a5.55,5.55,0,0,1,.39-2.21,3.83,3.83,0,0,1,.81-1.17,3.2,3.2,0,0,1,1.11-.78,4.64,4.64,0,0,1,1.85-.34,4,4,0,0,1,3,1.18,5.27,5.27,0,0,1,0,6.53,4.54,4.54,0,0,1-6.07,0A4.41,4.41,0,0,1,463.15,348.68Zm1.79-.06a3.17,3.17,0,0,0,.68,2.21,2.32,2.32,0,0,0,3.28.13l.13-.13a3.38,3.38,0,0,0,.66-2.25,3.26,3.26,0,0,0-.64-2.2,2.38,2.38,0,0,0-3.38-.07.23.23,0,0,0-.07.07A3.17,3.17,0,0,0,464.94,348.62Z" transform="translate(0 -0.07)" fill="#231f20"/><path d="M515.6,344.33h3.17a6,6,0,0,1,1.63.16,2.8,2.8,0,0,1,1.3.8,3.69,3.69,0,0,1,.82,1.39,6.13,6.13,0,0,1,.28,2,6,6,0,0,1-.26,1.83,3.92,3.92,0,0,1-.92,1.51,3.22,3.22,0,0,1-1.22.69,5.69,5.69,0,0,1-1.54.18H515.6Zm1.73,1.45v5.69h1.3a4.82,4.82,0,0,0,1-.08,1.67,1.67,0,0,0,.7-.36,1.87,1.87,0,0,0,.45-.83,5.19,5.19,0,0,0,.18-1.57,4.9,4.9,0,0,0-.18-1.53,1.89,1.89,0,0,0-.49-.83,1.56,1.56,0,0,0-.8-.4,6.83,6.83,0,0,0-1.43-.09Z" transform="translate(0 -0.07)" fill="#231f20"/><path d="M524.27,352.92v-8.59h6.37v1.45H526v1.91h4.32v1.45H526v2.33h4.8v1.45Z" transform="translate(0 -0.07)" fill="#231f20"/><path d="M550.18,344.33h3.17a6.05,6.05,0,0,1,1.64.16,2.77,2.77,0,0,1,1.29.8,3.45,3.45,0,0,1,.82,1.39,5.88,5.88,0,0,1,.29,2,5.42,5.42,0,0,1-.27,1.83,3.63,3.63,0,0,1-.92,1.51,3,3,0,0,1-1.22.69,5.62,5.62,0,0,1-1.53.18h-3.27Zm1.74,1.45v5.69h1.29a4.77,4.77,0,0,0,1-.08,1.56,1.56,0,0,0,.7-.36,1.71,1.71,0,0,0,.46-.83,5.56,5.56,0,0,0,.17-1.57,5.25,5.25,0,0,0-.17-1.53,1.82,1.82,0,0,0-.5-.83,1.52,1.52,0,0,0-.8-.4,6.74,6.74,0,0,0-1.42-.09Z" transform="translate(0 -0.07)" fill="#231f20"/><path d="M558.8,352.92v-8.59h1.72v8.59Z" transform="translate(0 -0.07)" fill="#231f20"/><path d="M601.44,283.82v-1.45h3.73v3.43a4.56,4.56,0,0,1-1.58.92,5.52,5.52,0,0,1-2.09.41,4.7,4.7,0,0,1-2.35-.57,3.64,3.64,0,0,1-1.51-1.62,5.34,5.34,0,0,1-.5-2.29,5,5,0,0,1,.56-2.38,3.81,3.81,0,0,1,1.65-1.6,4.47,4.47,0,0,1,2.06-.43,4.09,4.09,0,0,1,2.5.67,3.06,3.06,0,0,1,1.15,1.86l-1.72.32a1.83,1.83,0,0,0-.68-1,2.06,2.06,0,0,0-1.25-.36,2.36,2.36,0,0,0-1.81.72,3,3,0,0,0-.67,2.13,3.4,3.4,0,0,0,.68,2.3,2.24,2.24,0,0,0,1.78.76,2.86,2.86,0,0,0,1.09-.21,3.59,3.59,0,0,0,.94-.52v-1.09Z" transform="translate(0 -0.07)" fill="#231f20"/><path d="M606.79,287v-8.59h1.75l3.51,5.74v-5.74h1.62V287h-1.75l-3.46-5.6V287Z" transform="translate(0 -0.07)" fill="#231f20"/><path d="M615.44,278.39h3.17a6.05,6.05,0,0,1,1.64.16,3,3,0,0,1,1.29.79,3.55,3.55,0,0,1,.82,1.4,6.16,6.16,0,0,1,.28,2,5.35,5.35,0,0,1-.26,1.82,3.6,3.6,0,0,1-.92,1.52,3.22,3.22,0,0,1-1.22.69,4.94,4.94,0,0,1-1.53.18h-3.27Zm1.74,1.45v5.69h1.29a5.31,5.31,0,0,0,1-.08,1.56,1.56,0,0,0,.7-.36,1.8,1.8,0,0,0,.46-.83,5.91,5.91,0,0,0,.17-1.57,5.25,5.25,0,0,0-.17-1.53,2.08,2.08,0,0,0-.5-.83,1.62,1.62,0,0,0-.8-.41,7.52,7.52,0,0,0-1.42-.08Z" transform="translate(0 -0.07)" fill="#231f20"/><rect x="426.93" y="209.7" width="164.89" height="122.5" fill="#fff" stroke="#231f20" stroke-miterlimit="10" stroke-width="1.5"/><path d="M543.18,269.81a2.67,2.67,0,1,1-2.66,2.67h0a2.65,2.65,0,0,1,2.62-2.67Z" transform="translate(0 -0.07)" fill="#fff" stroke="#231f20" stroke-miterlimit="10" stroke-width="1.5"/><polygon points="530.33 301.6 580.62 301.6 555.47 257.24 530.33 301.6" fill="#fff" stroke="#231f20" stroke-miterlimit="10" stroke-width="1.5"/><polygon points="438.33 257.24 488.63 257.24 463.48 301.6 438.33 257.24" fill="#fff" stroke="#231f20" stroke-miterlimit="10" stroke-width="1.5"/><path d="M480.94,251.93a2.66,2.66,0,1,1-2.65,2.67h0a2.64,2.64,0,0,1,2.62-2.66Z" transform="translate(0 -0.07)" fill="#fff" stroke="#231f20" stroke-miterlimit="10" stroke-width="1.5"/><path d="M475.61,283.27a2.66,2.66,0,1,1-2.65,2.67h0a2.64,2.64,0,0,1,2.62-2.66Z" transform="translate(0 -0.07)" fill="#fff" stroke="#231f20" stroke-miterlimit="10" stroke-width="1.5"/><line x1="463.35" y1="332.13" x2="463.35" y2="301.2" fill="none" stroke="#231f20" stroke-miterlimit="10" stroke-width="1.5"/><line x1="555.35" y1="332.13" x2="555.35" y2="301.2" fill="none" stroke="#231f20" stroke-miterlimit="10" stroke-width="1.5"/><path d="M592.13,275.79h0a6.12,6.12,0,1,0-6.1-6.13v0A6.11,6.11,0,0,0,592.13,275.79Z" transform="translate(0 -0.07)" fill="#fff" stroke="#010101" stroke-width="1.5" fill-rule="evenodd"/><path d="M463.41,338h0a6.11,6.11,0,1,0-6.11-6.11h0A6.11,6.11,0,0,0,463.41,338Z" transform="translate(0 -0.07)" fill="#fff" stroke="#010101" stroke-width="1.5" fill-rule="evenodd"/><path d="M555.61,338h0a6.11,6.11,0,1,0-6.11-6.11h0a6.1,6.1,0,0,0,6.1,6.1Z" transform="translate(0 -0.07)" fill="#fff" stroke="#010101" stroke-width="1.5" fill-rule="evenodd"/><polyline points="478.26 285.86 494.71 285.86 494.71 331.08" fill="none" stroke="#231f20" stroke-miterlimit="10" stroke-width="1.5"/><polyline points="539.35 285.86 522.87 285.86 522.87 331.08" fill="none" stroke="#231f20" stroke-miterlimit="10" stroke-width="1.5"/><path d="M522.68,338h0a6.11,6.11,0,1,0-6.11-6.11h0A6.11,6.11,0,0,0,522.68,338Z" transform="translate(0 -0.07)" fill="#fff" stroke="#010101" stroke-width="1.5" fill-rule="evenodd"/><path d="M494.58,338h0a6.11,6.11,0,1,0-6.11-6.11h0a6.1,6.1,0,0,0,6.1,6.1Z" transform="translate(0 -0.07)" fill="#fff" stroke="#010101" stroke-width="1.5" fill-rule="evenodd"/><polyline points="480.94 251.86 480.94 242.12 543.01 242.12 543.01 269.74" fill="none" stroke="#010101" stroke-width="1.5"/><polyline points="447.08 257.05 447.08 226.37 573.13 226.37 573.13 288.39" fill="none" stroke="#231f20" stroke-miterlimit="10" stroke-width="1.5"/><path d="M526.26,245h0a2.88,2.88,0,1,1,2.82-2.94v.07a2.83,2.83,0,0,1-2.81,2.87Z" transform="translate(0 -0.07)" fill="#010101" stroke="#010101" stroke-miterlimit="14.31" stroke-width="1"/><path d="M502.49,229h0A2.88,2.88,0,1,1,505.3,226v.08a2.84,2.84,0,0,1-2.81,2.87Z" transform="translate(0 -0.07)" fill="#010101" stroke="#010101" stroke-miterlimit="14.31" stroke-width="1"/><path d="M609.06,190.3h0a2.88,2.88,0,1,1,2.81-3v.07a2.84,2.84,0,0,1-2.8,2.88Z" transform="translate(0 -0.07)" fill="#010101" stroke="#010101" stroke-miterlimit="14.31" stroke-width="1"/><path d="M526.26,108.93h0a2.88,2.88,0,1,1,2.82-2.94v.07a2.84,2.84,0,0,1-2.81,2.87Z" transform="translate(0 -0.07)" fill="#010101" stroke="#010101" stroke-miterlimit="14.31" stroke-width="1"/><path d="M502.49,73.58h0a2.88,2.88,0,1,1,2.81-3v.08a2.84,2.84,0,0,1-2.81,2.87Z" transform="translate(0 -0.07)" fill="#010101" stroke="#010101" stroke-miterlimit="14.31" stroke-width="1"/><path d="M460.15,277.37v-8.6h3.65a6.83,6.83,0,0,1,2,.23,2.08,2.08,0,0,1,1,.83,2.6,2.6,0,0,1,.38,1.35,2.37,2.37,0,0,1-.57,1.61,2.81,2.81,0,0,1-1.7.79,4,4,0,0,1,.93.72,10.12,10.12,0,0,1,1,1.4l1,1.67h-2.08l-1.25-1.87a14.53,14.53,0,0,0-.92-1.26,1.32,1.32,0,0,0-.53-.36,2.53,2.53,0,0,0-.87-.09h-.35v3.58Zm1.74-4.95h1.28a7.5,7.5,0,0,0,1.57-.11,1.11,1.11,0,0,0,.49-.37,1.31,1.31,0,0,0,.17-.65,1,1,0,0,0-.88-1h-2.63Z" transform="translate(0 -0.07)" fill="#231f20"/><path d="M552.38,282.12h3.13a5.94,5.94,0,0,1,1.63.16,2.86,2.86,0,0,1,1.3.79,3.51,3.51,0,0,1,.82,1.39,6.46,6.46,0,0,1,.29,2,5.43,5.43,0,0,1-.28,1.83,3.5,3.5,0,0,1-.92,1.52,2.9,2.9,0,0,1-1.21.68,4.72,4.72,0,0,1-1.54.19h-3.26Zm1.73,1.45v5.69h1.3a4.77,4.77,0,0,0,1-.08,1.43,1.43,0,0,0,.7-.36,1.71,1.71,0,0,0,.46-.83,5.19,5.19,0,0,0,.17-1.57,4.68,4.68,0,0,0-.17-1.53,2,2,0,0,0-.49-.83,1.61,1.61,0,0,0-.81-.41,8.4,8.4,0,0,0-1.42-.08Z" transform="translate(0 -0.07)" fill="#231f20"/><path d="M494.14,206h-1.89l-.76-1.95h-3.43l-.72,1.95h-1.86l3.35-8.6h1.84Zm-3.2-3.4-1.18-3.19-1.16,3.19Z" transform="translate(0 -0.07)" fill="#231f20"/><path d="M536.3,197.41h3.43a9.69,9.69,0,0,1,1.52.09,2.26,2.26,0,0,1,.9.35,2.39,2.39,0,0,1,.66.72,2.06,2.06,0,0,1-.81,2.8l-.14.08a2.17,2.17,0,0,1,1.21.78,2,2,0,0,1,.42,1.29,2.69,2.69,0,0,1-.27,1.14,2.39,2.39,0,0,1-.75.89,2.44,2.44,0,0,1-1.16.4c-.29,0-1,.05-2.09.06H536.3Zm1.73,1.43v2h2.4a1.25,1.25,0,0,0,.7-.32.9.9,0,0,0,.25-.67,1,1,0,0,0-.22-.65,1.06,1.06,0,0,0-.65-.3H539Zm0,3.43v2.29h1.61a8,8,0,0,0,1.19-.05,1.18,1.18,0,0,0,.68-.35,1.24,1.24,0,0,0,0-1.39,1,1,0,0,0-.54-.39,5.72,5.72,0,0,0-1.54-.12Z" transform="translate(0 -0.07)" fill="#231f20"/><line x1="502.51" y1="226.62" x2="502.51" y2="71.21" fill="none" stroke="#010101" stroke-miterlimit="14.31" stroke-width="1.5"/><line x1="526.42" y1="240.62" x2="526.42" y2="106.56" fill="none" stroke="#010101" stroke-miterlimit="14.31" stroke-width="1.5"/><path d="M502.49,215.94h0a6.11,6.11,0,1,0-6.11-6.11h0A6.12,6.12,0,0,0,502.49,215.94Z" transform="translate(0 -0.07)" fill="#fff" stroke="#010101" stroke-width="1.5" fill-rule="evenodd"/><path d="M526.34,215.94h0a6.11,6.11,0,1,0-6.1-6.12h0A6.11,6.11,0,0,0,526.34,215.94Z" transform="translate(0 -0.07)" fill="#fff" stroke="#010101" stroke-width="1.5" fill-rule="evenodd"/><polyline points="598.23 269.61 608.98 269.61 608.98 187.26" fill="none" stroke="#010101" stroke-width="1.5"/><path d="M486.62,352.92v-8.59h3.66a6.16,6.16,0,0,1,2,.23,2,2,0,0,1,1,.83,2.45,2.45,0,0,1,.37,1.35,2.36,2.36,0,0,1-.56,1.6,2.81,2.81,0,0,1-1.7.79,4.29,4.29,0,0,1,.93.72,9.35,9.35,0,0,1,1,1.4l1.05,1.67H492.3L491,351.05a12.6,12.6,0,0,0-.91-1.26,1.52,1.52,0,0,0-.52-.36,3.29,3.29,0,0,0-.88-.09h-.35v3.58Zm1.74-4.95h1.29a6.71,6.71,0,0,0,1.55-.11,1.16,1.16,0,0,0,.49-.36,1.25,1.25,0,0,0,.18-.65,1,1,0,0,0-.23-.7,1.09,1.09,0,0,0-.66-.34h-2.62Z" transform="translate(0 -0.07)" fill="#231f20"/><path d="M495.29,352.92v-8.59h6.37v1.46H497v1.9h4.32v1.45H497v2.33h4.8v1.45Z" transform="translate(0 -0.07)" fill="#231f20"/><line x1="486.44" y1="342.07" x2="501.7" y2="342.07" fill="none" stroke="#010101" stroke-width="1"/><path d="M387.64,270.41v-2.23h2.19v2.2Z" transform="translate(0 -0.07)" fill="#231f20"/><path d="M396.54,270.41v-2.23h2.19v2.2Z" transform="translate(0 -0.07)" fill="#231f20"/><path d="M405.45,270.41v-2.23h2.19v2.2Z" transform="translate(0 -0.07)" fill="#231f20"/><path d="M414.32,270.41v-2.23h2.19v2.2Z" transform="translate(0 -0.07)" fill="#231f20"/><path d="M233.91,87.52q-12.76-24.15-25.51,0c-3.54,7.4-11.7,18.39-22.33,18.39H117.14" transform="translate(0 -0.07)" fill="none" stroke="#1e1b18" stroke-miterlimit="10" stroke-width="1.5"/><path d="M359,87.52c-8.51-15.84-16.66-15.84-25.52,0" transform="translate(0 -0.07)" fill="none" stroke="#1e1b18" stroke-miterlimit="10" stroke-width="1.5"/><path d="M333.49,87.52c-3.55,7.4-12.05,18.39-22.69,18.39-14.88.51-29.76,0-44.65,0-11.69,0-24.09-2.31-32.24-18.14" transform="translate(0 -0.07)" fill="none" stroke="#1e1b18" stroke-miterlimit="10" stroke-width="1.5"/><path d="M234.27,89.05c-8.87,16.08-17,16.08-25.52,0-3.89-7.41-11.69-18.4-22.32-18.4H135.34" transform="translate(0 -0.07)" fill="none" stroke="#1e1b18" stroke-miterlimit="10" stroke-width="1.5"/><path d="M132.65,78.57" transform="translate(0 -0.07)" fill="none" stroke="#010101" stroke-miterlimit="10" stroke-width="1.5"/><path d="M148.24,105.91" transform="translate(0 -0.07)" fill="none" stroke="#010101" stroke-miterlimit="10" stroke-width="1.5"/><path d="M310.81,70.65c-22-.25-36.5,0-44.3,0-11.69,0-24.1,2.3-32.24,18.14" transform="translate(0 -0.07)" fill="none" stroke="#1e1b18" stroke-miterlimit="10" stroke-width="1.5"/><path d="M584.72,87.77c-7.8-16.09-15.59-16.09-23.74-.25" transform="translate(0 -0.07)" fill="none" stroke="#1e1b18" stroke-miterlimit="10" stroke-width="1.5"/><path d="M676.14,106.12h-64c-11.7,0-20-2.3-28.11-18.39" transform="translate(0 -0.07)" fill="none" stroke="#1e1b18" stroke-miterlimit="10" stroke-width="1.5"/><path d="M584.37,88.79c-7.81,16.09-15.6,16.61-23.74.51h-.36c-3.55-7.4-11.7-18.39-22.32-18.39l-46.46-.25c-11.69,0-23.73,1.53-31.89,17.62l-.36,1.28c-8.85,15.84-16.65,15.57-25.51-.51l-.36-1.53c-8.85-16.1-17-15.84-25.51,0l-.35,1.27c-8.15,16.09-15.95,16.09-24.1,0-3.89-7.92-8.14-13.28-12-13.28-4.26-.26-8.51,5.1-12.4,13.28-8.86,16.09-17,16.09-25.51,0-3.9-7.15-12.05-18.13-22.68-18.13" transform="translate(0 -0.07)" fill="none" stroke="#1e1b18" stroke-miterlimit="10" stroke-width="1.5"/><path d="M659.37,70.65h-46.9c-11.7,0-20,2.3-28.1,18.4" transform="translate(0 -0.07)" fill="none" stroke="#1e1b18" stroke-miterlimit="10" stroke-width="1.5"/><path d="M654.73,78.57" transform="translate(0 -0.07)" fill="none" stroke="#010101" stroke-miterlimit="10" stroke-width="1.5"/><path d="M639.48,105.91" transform="translate(0 -0.07)" fill="none" stroke="#010101" stroke-miterlimit="10" stroke-width="1.5"/><path d="M359.56,87.52c4.25,8.17,8.15,13.53,12.41,13.53,4.25.25,8.14-5.11,12.4-13.53,8.14-15.84,15.94-15.59,24.09.51l.36,1q12.75,24.12,25.51,0L435,87.5c8.86-16.1,16.65-16.35,25.51-.26v.26c8.15,16.08,20.55,18.64,32.25,18.64h45.71c10.63,0,18.42-11.24,22.33-18.64" transform="translate(0 -0.07)" fill="none" stroke="#1e1b18" stroke-miterlimit="10" stroke-width="1.5"/><path d="M649.63,70.65h0a6.11,6.11,0,1,1-6.12-6.1h0A6.1,6.1,0,0,1,649.63,70.65Z" transform="translate(0 -0.07)" fill="#fff" stroke="#010101" stroke-width="1.5" fill-rule="evenodd"/><path d="M649.63,106h0a6.11,6.11,0,1,1-6.11-6.12h0a6.1,6.1,0,0,1,6.1,6.11Z" transform="translate(0 -0.07)" fill="#fff" stroke="#010101" stroke-width="1.5" fill-rule="evenodd"/><path d="M142.94,70.65h0a6.12,6.12,0,1,0,6.12-6.1h0A6.11,6.11,0,0,0,142.94,70.65Z" transform="translate(0 -0.07)" fill="#fff" stroke="#010101" stroke-width="1.5" fill-rule="evenodd"/><path d="M142.94,106h0a6.12,6.12,0,1,0,6.11-6.12,6.12,6.12,0,0,0-6.11,6.12Z" transform="translate(0 -0.07)" fill="#fff" stroke="#010101" stroke-width="1.5" fill-rule="evenodd"/><path d="M806.36,353.45a5,5,0,0,1-1.64-.21,2,2,0,0,1-1-.62,1.71,1.71,0,0,1-.15-1.81,1.45,1.45,0,0,1,.53-.57,3.2,3.2,0,0,1,.85-.36,5.65,5.65,0,0,1,1.36-.13,5,5,0,0,1,1.63.21,2,2,0,0,1,1,.62,1.52,1.52,0,0,1,.34,1,1.6,1.6,0,0,1-.59,1.3A3.74,3.74,0,0,1,806.36,353.45Zm0-.72a3.7,3.7,0,0,0,1.88-.33,1,1,0,0,0,.46-.82,1,1,0,0,0-.47-.81,5.49,5.49,0,0,0-3.75,0,1,1,0,0,0-.47.82.89.89,0,0,0,.41.77A3.61,3.61,0,0,0,806.36,352.73Z" transform="translate(0 -0.07)" fill="#231f20"/><path d="M804.21,349h-.68v-3.73h.55a7.65,7.65,0,0,0,1.54,1.09,10,10,0,0,0,2,.83,8.32,8.32,0,0,0,1.57.27v.72a8.15,8.15,0,0,1-1.63-.26,9.49,9.49,0,0,1-1.85-.73,8.82,8.82,0,0,1-1.49-1Z" transform="translate(0 -0.07)" fill="#231f20"/><path d="M807.67,344.55l-.09-.71a1.59,1.59,0,0,0,.86-.42,1,1,0,0,0,.26-.71,1.17,1.17,0,0,0-.34-.84,1.22,1.22,0,0,0-.85-.34,1.09,1.09,0,0,0-1.12,1.12,2.09,2.09,0,0,0,.08.5l-.62-.08V343a1.58,1.58,0,0,0-.23-.81.84.84,0,0,0-.72-.36.91.91,0,0,0-.65.26,1,1,0,0,0-.25.68,1,1,0,0,0,.26.69,1.3,1.3,0,0,0,.77.35l-.12.71a1.92,1.92,0,0,1-1.1-.59,1.66,1.66,0,0,1-.39-1.15,1.87,1.87,0,0,1,.2-.86,1.51,1.51,0,0,1,.55-.6,1.48,1.48,0,0,1,.74-.21,1.26,1.26,0,0,1,.68.2,1.45,1.45,0,0,1,.48.59,1.31,1.31,0,0,1,.49-.79,1.5,1.5,0,0,1,.92-.28,1.74,1.74,0,0,1,1.27.54,2,2,0,0,1,.52,1.39,1.83,1.83,0,0,1-.45,1.26A1.77,1.77,0,0,1,807.67,344.55Z" transform="translate(0 -0.07)" fill="#231f20"/><path d="M807.86,340l-.06-.67a1.21,1.21,0,0,0,.69-.33.92.92,0,0,0,.21-.62,1,1,0,0,0-.15-.57,1.35,1.35,0,0,0-.39-.4,2.74,2.74,0,0,0-.67-.26,3.56,3.56,0,0,0-.86-.11h-.14a1.73,1.73,0,0,1,.54.57,1.62,1.62,0,0,1,.21.8,1.59,1.59,0,0,1-.51,1.2,1.85,1.85,0,0,1-1.36.49,2,2,0,0,1-1.41-.51,1.72,1.72,0,0,1-.53-1.29,1.8,1.8,0,0,1,.3-1,2,2,0,0,1,.86-.71,4.37,4.37,0,0,1,1.61-.24,5.22,5.22,0,0,1,1.75.24,2.17,2.17,0,0,1,1,.71,1.86,1.86,0,0,1,.34,1.11,1.49,1.49,0,0,1-1.43,1.59Zm-2.53-2.87a1.39,1.39,0,0,0-1,.32,1,1,0,0,0-.36.77,1,1,0,0,0,.39.82,1.35,1.35,0,0,0,1,.35,1.18,1.18,0,0,0,.89-.33,1.09,1.09,0,0,0,.37-.83,1,1,0,0,0-.34-.8,1.42,1.42,0,0,0-.95-.3Z" transform="translate(0 -0.07)" fill="#231f20"/><path d="M807.68,335.64l-.06-.74a1.26,1.26,0,0,0,.81-.38,1,1,0,0,0,.27-.72,1.17,1.17,0,0,0-.38-.86,1.48,1.48,0,0,0-1-.35,1.29,1.29,0,0,0-1,.34,1.15,1.15,0,0,0-.34.88,1.32,1.32,0,0,0,.15.62,1.27,1.27,0,0,0,.4.43l-.08.66-3-.56v-2.85h.68v2.29l1.53.31a2,2,0,0,1-.35-1.08,1.68,1.68,0,0,1,.52-1.27,1.82,1.82,0,0,1,1.33-.52,2,2,0,0,1,1.34.46,1.8,1.8,0,0,1,.7,1.5,1.87,1.87,0,0,1-.44,1.28A1.66,1.66,0,0,1,807.68,335.64Z" transform="translate(0 -0.07)" fill="#231f20"/><path d="M807.46,331.27h-.7v-2.16h.7Z" transform="translate(0 -0.07)" fill="#231f20"/><path d="M806.36,328.53a5.32,5.32,0,0,1-1.64-.21,2,2,0,0,1-1-.62,1.71,1.71,0,0,1-.15-1.81,1.39,1.39,0,0,1,.53-.57A2.9,2.9,0,0,1,805,325a5.65,5.65,0,0,1,1.36-.13,5,5,0,0,1,1.63.21,2,2,0,0,1,1,.62,1.5,1.5,0,0,1,.34,1,1.6,1.6,0,0,1-.59,1.3A3.74,3.74,0,0,1,806.36,328.53Zm0-.72a3.7,3.7,0,0,0,1.88-.33,1,1,0,0,0,.46-.82,1,1,0,0,0-.47-.81,5.49,5.49,0,0,0-3.75,0,1,1,0,0,0-.47.82.89.89,0,0,0,.41.77A3.71,3.71,0,0,0,806.36,327.81Z" transform="translate(0 -0.07)" fill="#231f20"/><path d="M806.36,324.08a5.64,5.64,0,0,1-1.64-.21,2,2,0,0,1-1-.62,1.54,1.54,0,0,1-.34-1,1.49,1.49,0,0,1,.19-.81,1.39,1.39,0,0,1,.53-.57,2.66,2.66,0,0,1,.85-.36,5.65,5.65,0,0,1,1.36-.13,5,5,0,0,1,1.63.21,2,2,0,0,1,1,.62,1.74,1.74,0,0,1-.25,2.34A3.81,3.81,0,0,1,806.36,324.08Zm0-.72a3.7,3.7,0,0,0,1.88-.33,1,1,0,0,0,.46-.82,1,1,0,0,0-.47-.81,5.49,5.49,0,0,0-3.75,0,1,1,0,0,0-.47.82.89.89,0,0,0,.41.77A3.81,3.81,0,0,0,806.36,323.36Z" transform="translate(0 -0.07)" fill="#231f20"/><path d="M807.67,319.63l-.09-.72a1.51,1.51,0,0,0,.86-.41,1,1,0,0,0,.26-.71,1.15,1.15,0,0,0-.34-.84,1.22,1.22,0,0,0-.85-.34,1.09,1.09,0,0,0-.8.32,1.1,1.1,0,0,0-.32.8,2.09,2.09,0,0,0,.08.5l-.62-.08V318a1.5,1.5,0,0,0-.23-.84.82.82,0,0,0-.72-.36.91.91,0,0,0-.65.26,1,1,0,0,0-.25.68,1,1,0,0,0,.26.68,1.25,1.25,0,0,0,.77.35l-.12.71a1.81,1.81,0,0,1-1.1-.59,1.63,1.63,0,0,1-.39-1.14,1.87,1.87,0,0,1,.2-.86,1.51,1.51,0,0,1,.55-.6,1.48,1.48,0,0,1,.74-.21,1.26,1.26,0,0,1,.68.2,1.45,1.45,0,0,1,.48.59,1.33,1.33,0,0,1,.55-.71,1.5,1.5,0,0,1,.92-.28,1.74,1.74,0,0,1,1.27.54,2,2,0,0,1,.52,1.39,1.79,1.79,0,0,1-.45,1.25A1.73,1.73,0,0,1,807.67,319.63Z" transform="translate(0 -0.07)" fill="#231f20"/><line x1="775.33" y1="61.67" x2="790.58" y2="61.67" fill="none" stroke="#231f20" stroke-miterlimit="10" stroke-width="1"/><line y1="61.39" x2="15.01" y2="61.39" fill="none" stroke="#231f20" stroke-miterlimit="10" stroke-width="1"/></svg>